# xmcd
#
# Track frame offsets: 
#        150
#        32106
#        62550
#        105090
#        137297
#        161879
#        194283
#        225749
#        251067
#
# Disc length: 3687 seconds
#
# Revision: 1
# Processed by: cddbd v1.5.2PL0 Copyright (c) Steve Scherf et al.
# Submitted via: ExactAudioCopy v0.99pb5
#
DISCID=6e0e6509
DTITLE=Sylvain Beuf - Joy
DYEAR=2009
DGENRE=Jazz
TTITLE0=Joy
TTITLE1=Sushi
TTITLE2=Baïkal Lake
TTITLE3=Ballade pour Rapha
TTITLE4=Trouble in my Glass
TTITLE5=Suspect Noise
TTITLE6=Les notes bleues
TTITLE7=Spatio Temporis
TTITLE8=Smile
EXTD=YEAR: 2009
EXTT0=
EXTT1=
EXTT2=
EXTT3=
EXTT4=
EXTT5=
EXTT6=
EXTT7=
EXTT8=
PLAYORDER=
